<mxfile host="app.diagrams.net" modified="2023-12-07T08:35:32.099Z" agent="Mozilla/5.0 (Windows NT 10.0; Win64; x64) AppleWebKit/537.36 (KHTML, like Gecko) Chrome/119.0.0.0 Safari/537.36" etag="G_Nz2sgsP8LkheK5kG30" version="22.1.7" type="device">
  <diagram name="Page-1" id="WLLnyFLhfvg5qUx7LxWF">
    <mxGraphModel dx="1313" dy="724" grid="1" gridSize="10" guides="1" tooltips="1" connect="1" arrows="1" fold="1" page="1" pageScale="1" pageWidth="850" pageHeight="1100" math="0" shadow="0">
      <root>
        <mxCell id="0" />
        <mxCell id="1" parent="0" />
        <mxCell id="fhwvIweEx6_BrpGDfe0--4" style="edgeStyle=orthogonalEdgeStyle;rounded=0;orthogonalLoop=1;jettySize=auto;html=1;" edge="1" parent="1" source="fhwvIweEx6_BrpGDfe0--1" target="fhwvIweEx6_BrpGDfe0--3">
          <mxGeometry relative="1" as="geometry" />
        </mxCell>
        <mxCell id="fhwvIweEx6_BrpGDfe0--1" value="Application Opened" style="rounded=1;whiteSpace=wrap;html=1;fontSize=17;" vertex="1" parent="1">
          <mxGeometry x="305" y="150" width="120" height="60" as="geometry" />
        </mxCell>
        <mxCell id="fhwvIweEx6_BrpGDfe0--8" style="edgeStyle=orthogonalEdgeStyle;rounded=0;orthogonalLoop=1;jettySize=auto;html=1;" edge="1" parent="1" source="fhwvIweEx6_BrpGDfe0--3" target="fhwvIweEx6_BrpGDfe0--7">
          <mxGeometry relative="1" as="geometry" />
        </mxCell>
        <mxCell id="fhwvIweEx6_BrpGDfe0--3" value="Scan the number plate" style="rhombus;whiteSpace=wrap;html=1;fontSize=17;" vertex="1" parent="1">
          <mxGeometry x="300" y="260" width="130" height="130" as="geometry" />
        </mxCell>
        <mxCell id="fhwvIweEx6_BrpGDfe0--9" style="edgeStyle=orthogonalEdgeStyle;rounded=0;orthogonalLoop=1;jettySize=auto;html=1;entryX=1;entryY=0.5;entryDx=0;entryDy=0;" edge="1" parent="1" source="fhwvIweEx6_BrpGDfe0--5" target="fhwvIweEx6_BrpGDfe0--7">
          <mxGeometry relative="1" as="geometry">
            <Array as="points">
              <mxPoint x="600" y="470" />
            </Array>
          </mxGeometry>
        </mxCell>
        <mxCell id="fhwvIweEx6_BrpGDfe0--5" value="&lt;font style=&quot;font-size: 17px;&quot;&gt;International Database&lt;/font&gt;" style="shape=cube;whiteSpace=wrap;html=1;boundedLbl=1;backgroundOutline=1;darkOpacity=0.05;darkOpacity2=0.1;" vertex="1" parent="1">
          <mxGeometry x="540" y="350" width="120" height="80" as="geometry" />
        </mxCell>
        <mxCell id="fhwvIweEx6_BrpGDfe0--12" style="edgeStyle=orthogonalEdgeStyle;rounded=0;orthogonalLoop=1;jettySize=auto;html=1;entryX=0.5;entryY=0;entryDx=0;entryDy=0;" edge="1" parent="1" source="fhwvIweEx6_BrpGDfe0--7" target="fhwvIweEx6_BrpGDfe0--11">
          <mxGeometry relative="1" as="geometry" />
        </mxCell>
        <mxCell id="fhwvIweEx6_BrpGDfe0--15" style="edgeStyle=orthogonalEdgeStyle;rounded=0;orthogonalLoop=1;jettySize=auto;html=1;" edge="1" parent="1" source="fhwvIweEx6_BrpGDfe0--7" target="fhwvIweEx6_BrpGDfe0--14">
          <mxGeometry relative="1" as="geometry" />
        </mxCell>
        <mxCell id="fhwvIweEx6_BrpGDfe0--7" value="Load car Schematics" style="rounded=1;whiteSpace=wrap;html=1;fontSize=17;" vertex="1" parent="1">
          <mxGeometry x="305" y="440" width="120" height="60" as="geometry" />
        </mxCell>
        <mxCell id="fhwvIweEx6_BrpGDfe0--11" value="Look at schematics" style="shape=hexagon;perimeter=hexagonPerimeter2;whiteSpace=wrap;html=1;fixedSize=1;fontSize=17;" vertex="1" parent="1">
          <mxGeometry x="305" y="560" width="120" height="80" as="geometry" />
        </mxCell>
        <mxCell id="fhwvIweEx6_BrpGDfe0--17" style="edgeStyle=orthogonalEdgeStyle;rounded=0;orthogonalLoop=1;jettySize=auto;html=1;entryX=1;entryY=0.5;entryDx=0;entryDy=0;" edge="1" parent="1" source="fhwvIweEx6_BrpGDfe0--14" target="fhwvIweEx6_BrpGDfe0--16">
          <mxGeometry relative="1" as="geometry" />
        </mxCell>
        <mxCell id="fhwvIweEx6_BrpGDfe0--14" value="Local database" style="shape=cube;whiteSpace=wrap;html=1;boundedLbl=1;backgroundOutline=1;darkOpacity=0.05;darkOpacity2=0.1;fontSize=17;" vertex="1" parent="1">
          <mxGeometry x="540" y="520" width="120" height="80" as="geometry" />
        </mxCell>
        <mxCell id="fhwvIweEx6_BrpGDfe0--28" style="edgeStyle=orthogonalEdgeStyle;rounded=0;orthogonalLoop=1;jettySize=auto;html=1;entryX=1;entryY=0.5;entryDx=0;entryDy=0;" edge="1" parent="1" source="fhwvIweEx6_BrpGDfe0--16" target="fhwvIweEx6_BrpGDfe0--11">
          <mxGeometry relative="1" as="geometry">
            <Array as="points">
              <mxPoint x="500" y="600" />
            </Array>
          </mxGeometry>
        </mxCell>
        <mxCell id="fhwvIweEx6_BrpGDfe0--16" value="Sharing of information" style="rounded=1;whiteSpace=wrap;html=1;fontSize=17;" vertex="1" parent="1">
          <mxGeometry x="440" y="690" width="120" height="60" as="geometry" />
        </mxCell>
        <mxCell id="fhwvIweEx6_BrpGDfe0--25" style="edgeStyle=orthogonalEdgeStyle;rounded=0;orthogonalLoop=1;jettySize=auto;html=1;entryX=0;entryY=0.5;entryDx=0;entryDy=0;" edge="1" parent="1" source="fhwvIweEx6_BrpGDfe0--24" target="fhwvIweEx6_BrpGDfe0--11">
          <mxGeometry relative="1" as="geometry">
            <Array as="points">
              <mxPoint x="210" y="600" />
            </Array>
          </mxGeometry>
        </mxCell>
        <mxCell id="fhwvIweEx6_BrpGDfe0--26" style="edgeStyle=orthogonalEdgeStyle;rounded=0;orthogonalLoop=1;jettySize=auto;html=1;" edge="1" parent="1" source="fhwvIweEx6_BrpGDfe0--24" target="fhwvIweEx6_BrpGDfe0--16">
          <mxGeometry relative="1" as="geometry" />
        </mxCell>
        <mxCell id="fhwvIweEx6_BrpGDfe0--38" style="edgeStyle=orthogonalEdgeStyle;rounded=0;orthogonalLoop=1;jettySize=auto;html=1;entryX=0;entryY=0.5;entryDx=0;entryDy=0;" edge="1" parent="1" source="fhwvIweEx6_BrpGDfe0--24" target="fhwvIweEx6_BrpGDfe0--3">
          <mxGeometry relative="1" as="geometry">
            <Array as="points">
              <mxPoint x="210" y="325" />
            </Array>
          </mxGeometry>
        </mxCell>
        <mxCell id="fhwvIweEx6_BrpGDfe0--24" value="Team" style="shape=process;whiteSpace=wrap;html=1;backgroundOutline=1;fontSize=17;" vertex="1" parent="1">
          <mxGeometry x="150" y="690" width="120" height="60" as="geometry" />
        </mxCell>
        <mxCell id="fhwvIweEx6_BrpGDfe0--31" value="&lt;h1&gt;Number plate scan&lt;/h1&gt;&lt;p&gt;Scanning the number plate queries the database of 2D and 3D car schematics with possible hazards and dangerous parts.&lt;/p&gt;" style="text;html=1;strokeColor=none;fillColor=none;spacing=5;spacingTop=-20;whiteSpace=wrap;overflow=hidden;rounded=0;" vertex="1" parent="1">
          <mxGeometry x="20" y="260" width="190" height="120" as="geometry" />
        </mxCell>
        <mxCell id="fhwvIweEx6_BrpGDfe0--33" value="&lt;h1&gt;Local database&lt;/h1&gt;&lt;p&gt;Local database contains all the queried data from the international database and also facilitates communication between firefighter equiptment&lt;/p&gt;" style="text;html=1;strokeColor=none;fillColor=none;spacing=5;spacingTop=-20;whiteSpace=wrap;overflow=hidden;rounded=0;" vertex="1" parent="1">
          <mxGeometry x="630" y="620" width="190" height="120" as="geometry" />
        </mxCell>
        <mxCell id="fhwvIweEx6_BrpGDfe0--34" value="&lt;h1&gt;Team&lt;/h1&gt;&lt;p&gt;Team can look at schematics from the database and also edit and draw on them to mark specific information between themselves based on the car crash.&lt;/p&gt;" style="text;html=1;strokeColor=none;fillColor=none;spacing=5;spacingTop=-20;whiteSpace=wrap;overflow=hidden;rounded=0;" vertex="1" parent="1">
          <mxGeometry y="560" width="190" height="120" as="geometry" />
        </mxCell>
        <mxCell id="fhwvIweEx6_BrpGDfe0--36" value="&lt;h1&gt;&lt;font style=&quot;font-size: 34px;&quot;&gt;Firefighter Assistant Gadget&lt;/font&gt;&lt;/h1&gt;&lt;p&gt;&lt;font style=&quot;font-size: 15px;&quot;&gt;Firefighter assistant gadget is a phone with specific specialized software deployed on it to help firefighters communicate and access the schematics at the flick of their wrist.&lt;/font&gt;&lt;/p&gt;" style="text;html=1;strokeColor=none;fillColor=none;spacing=5;spacingTop=-20;whiteSpace=wrap;overflow=hidden;rounded=0;" vertex="1" parent="1">
          <mxGeometry y="10" width="350" height="190" as="geometry" />
        </mxCell>
        <mxCell id="fhwvIweEx6_BrpGDfe0--43" style="edgeStyle=orthogonalEdgeStyle;rounded=0;orthogonalLoop=1;jettySize=auto;html=1;" edge="1" parent="1" source="fhwvIweEx6_BrpGDfe0--39" target="fhwvIweEx6_BrpGDfe0--5">
          <mxGeometry relative="1" as="geometry" />
        </mxCell>
        <mxCell id="fhwvIweEx6_BrpGDfe0--39" value="Chemicals" style="shape=step;perimeter=stepPerimeter;whiteSpace=wrap;html=1;fixedSize=1;fontSize=17;size=12.5;" vertex="1" parent="1">
          <mxGeometry x="597.5" y="220" width="105" height="70" as="geometry" />
        </mxCell>
        <mxCell id="fhwvIweEx6_BrpGDfe0--44" style="edgeStyle=orthogonalEdgeStyle;rounded=0;orthogonalLoop=1;jettySize=auto;html=1;" edge="1" parent="1" source="fhwvIweEx6_BrpGDfe0--40" target="fhwvIweEx6_BrpGDfe0--5">
          <mxGeometry relative="1" as="geometry">
            <Array as="points">
              <mxPoint x="750" y="320" />
              <mxPoint x="600" y="320" />
            </Array>
          </mxGeometry>
        </mxCell>
        <mxCell id="fhwvIweEx6_BrpGDfe0--40" value="Physical Hazards" style="shape=step;perimeter=stepPerimeter;whiteSpace=wrap;html=1;fixedSize=1;fontSize=17;size=10;" vertex="1" parent="1">
          <mxGeometry x="697.5" y="220" width="105" height="70" as="geometry" />
        </mxCell>
        <mxCell id="fhwvIweEx6_BrpGDfe0--42" style="edgeStyle=orthogonalEdgeStyle;rounded=0;orthogonalLoop=1;jettySize=auto;html=1;" edge="1" parent="1" source="fhwvIweEx6_BrpGDfe0--41" target="fhwvIweEx6_BrpGDfe0--5">
          <mxGeometry relative="1" as="geometry" />
        </mxCell>
        <mxCell id="fhwvIweEx6_BrpGDfe0--41" value="Schematics" style="shape=step;perimeter=stepPerimeter;whiteSpace=wrap;html=1;fixedSize=1;fontSize=17;size=10;" vertex="1" parent="1">
          <mxGeometry x="500" y="220" width="105" height="70" as="geometry" />
        </mxCell>
        <mxCell id="fhwvIweEx6_BrpGDfe0--46" style="edgeStyle=orthogonalEdgeStyle;rounded=0;orthogonalLoop=1;jettySize=auto;html=1;" edge="1" parent="1" source="fhwvIweEx6_BrpGDfe0--45" target="fhwvIweEx6_BrpGDfe0--14">
          <mxGeometry relative="1" as="geometry">
            <Array as="points">
              <mxPoint x="690" y="570" />
              <mxPoint x="690" y="570" />
            </Array>
          </mxGeometry>
        </mxCell>
        <mxCell id="fhwvIweEx6_BrpGDfe0--45" value="Firefighter Drawings" style="shape=step;perimeter=stepPerimeter;whiteSpace=wrap;html=1;fixedSize=1;fontSize=17;size=10;" vertex="1" parent="1">
          <mxGeometry x="702.5" y="530" width="105" height="70" as="geometry" />
        </mxCell>
      </root>
    </mxGraphModel>
  </diagram>
</mxfile>
